<?xml version="1.0" encoding="utf-8"?>
<!-- Generator: Adobe Illustrator 26.2.1, SVG Export Plug-In . SVG Version: 6.00 Build 0)  -->
<svg version="1.1" id="Ebene_1" xmlns="http://www.w3.org/2000/svg" xmlns:xlink="http://www.w3.org/1999/xlink" x="0px" y="0px"
	 viewBox="0 0 841.89 595.28" style="enable-background:new 0 0 841.89 595.28;" xml:space="preserve">
<style type="text/css">
	.st0{fill:#EF7D00;}
</style>
<g>
	<path class="st0" d="M420.94,85.04c-117.41,0-212.6,95.18-212.6,212.6c0,117.41,95.18,212.6,212.6,212.6
		c117.41,0,212.6-95.18,212.6-212.6C633.54,180.22,538.36,85.04,420.94,85.04z M434.23,465.88c-4.49,0.06-8.97,0.01-13.46,0.01
		c-4.36,0-8.72,0.03-13.07-0.01c-4.7-0.05-7.25-2.24-7.21-6.09c0.04-3.7,2.54-5.89,6.99-5.92c8.97-0.05,17.94-0.06,26.92,0.01
		c4.3,0.03,6.94,2.46,6.89,6.08C441.23,463.58,438.61,465.82,434.23,465.88z M449.29,448.52c-9.48,0.03-18.96,0.01-28.43,0.01
		c-9.61,0-19.21,0.02-28.82-0.01c-4.48-0.02-6.79-2.12-6.74-5.98c0.05-3.85,2.31-5.79,6.91-5.79c19.08-0.02,38.17-0.02,57.25,0
		c4.55,0,6.9,1.98,6.96,5.77C456.49,446.43,454.07,448.51,449.29,448.52z M455.07,431.34c-0.77,0.01-1.54,0-2.3,0
		c-10.75,0-21.5,0-32.25,0c-11.26,0-22.53,0.01-33.79-0.01c-4.7-0.01-7.43-2.15-7.54-5.8c-0.11-3.74,2.8-6.18,7.6-6.19
		c22.78-0.02,45.56-0.03,68.35,0c4.6,0.01,7.36,2.37,7.33,6.05C462.44,429.09,459.72,431.28,455.07,431.34z M455.09,413.97
		c-22.9,0.03-45.81,0.03-68.71-0.01c-4.59-0.01-7.33-2.45-7.19-6.11c0.14-3.57,2.74-5.67,7.21-5.68
		c11.52-0.03,23.03-0.01,34.55-0.01c11.39,0,22.77-0.02,34.16,0.01c4.72,0.01,7.36,2.17,7.37,5.89
		C462.47,411.75,459.83,413.96,455.09,413.97z M507.66,313.43c-3.71,4.24-7.17,8.71-10.55,13.22c-8.24,11-13.37,23.19-14.39,37.06
		c-0.94,12.83-8.48,22.28-17.02,30.97c-1.38,1.41-4.19,1.95-6.34,1.98c-12.82,0.18-25.64,0.09-38.45,0.09
		c-12.69,0-25.38-0.07-38.07,0.05c-3.62,0.03-6.29-1.19-8.76-3.83c-9.24-9.85-14.97-21.02-15.91-34.85
		c-0.74-10.81-5.66-20.44-11.98-29.16c-4.51-6.22-9.33-12.23-14.25-18.13c-16.95-20.3-21.39-44.08-19.31-69.57
		c3.78-46.19,39.6-86.39,89.42-94.85c59.69-10.14,115.78,28.53,125.78,85.99C532.98,262.05,528.28,289.86,507.66,313.43z"/>
	<path class="st0" d="M442.48,249.32c-5.24,1.49-8.61,5.2-9.27,10.66c-0.74,6.09-1.15,12.24-1.32,18.38
		c-0.08,2.84-0.98,3.92-3.75,3.86c-4.97-0.1-9.95-0.11-14.92-0.05c-2.52,0.03-3.14-1.18-3.25-3.54c-0.3-6.39-0.56-12.82-1.48-19.14
		c-0.96-6.64-6.57-10.78-13.43-10.73c-7.13,0.06-12.39,4.33-13.5,11.16c-1.07,6.51,0.63,12.57,5.42,16.85
		c4.1,3.66,9.19,6.3,14.1,8.91c2.04,1.08,3.09,1.89,3.23,4.33c1.12,20.59,2.39,41.18,3.62,61.76c0.53,8.92,1.08,17.84,1.63,26.94
		c2.04,0,3.78,0,6.23,0c-1.74-30.3-3.46-60.23-5.18-90c7.25,0,13.72,0,20.61,0c-1.73,30.09-3.46,60.04-5.18,89.95
		c2.54,0,4.28,0,6.19,0c0.32-4.81,0.64-9.39,0.91-13.97c1.45-24.55,2.94-49.1,4.26-73.66c0.17-3.14,1.24-4.52,4.23-5.61
		c8.19-2.98,15.14-7.67,17.92-16.57c1.81-5.8,1.71-11.47-2.85-16.13C452.74,248.68,447.71,247.83,442.48,249.32z M387.67,262.77
		c0-4.38,2.64-7.42,6.76-7.78c4.14-0.36,7.59,2.19,8.03,6.45c0.61,5.93,0.83,11.91,1.25,18.26
		C393.77,276.88,387.67,270.23,387.67,262.77z M438.13,279.52c0.42-6.31,0.61-12.53,1.32-18.68c0.45-3.92,4.18-6.27,8.15-5.83
		c3.8,0.42,6.4,3.28,6.55,7.2C454.45,270,447.58,277.62,438.13,279.52z"/>
</g>
</svg>
