<?xml version="1.0" encoding="utf-8"?>
<!-- Generator: Adobe Illustrator 26.2.1, SVG Export Plug-In . SVG Version: 6.00 Build 0)  -->
<svg version="1.1" id="Ebene_1" xmlns="http://www.w3.org/2000/svg" xmlns:xlink="http://www.w3.org/1999/xlink" x="0px" y="0px"
	 viewBox="0 0 841.89 595.28" style="enable-background:new 0 0 841.89 595.28;" xml:space="preserve">
<style type="text/css">
	.st0{fill:#EF7D00;}
</style>
<g>
	<path class="st0" d="M420.94,85.04c-117.41,0-212.6,95.18-212.6,212.6s95.18,212.6,212.6,212.6s212.6-95.18,212.6-212.6
		S538.36,85.04,420.94,85.04z M336.35,406.22c-0.06,11.28-6.62,17.33-17.83,18.06c-3.5,0.23-7.02,0.1-10.54,0.07
		c-16.3-0.16-22.11-5.94-22.17-22.34c-0.08-23.54-0.02-47.07-0.02-70.61c0-24.24-0.13-48.48,0.05-72.72
		c0.11-13.7,6.41-19.84,20.02-20.21c4.21-0.11,8.44-0.2,12.64,0.06c11.22,0.7,17.78,6.77,17.83,18.05
		C336.6,306.45,336.6,356.34,336.35,406.22z M403.93,406.71c-0.08,10.7-6.61,16.74-17.22,17.53c-4.19,0.31-8.43,0.18-12.64,0.09
		c-14.35-0.3-20.49-6.31-20.62-20.68c-0.17-18.26-0.04-36.52-0.04-54.78c0-18.96-0.17-37.93,0.06-56.89
		c0.16-13.11,6.45-19.27,19.43-19.72c4.56-0.16,9.15-0.25,13.69,0.07c10.65,0.75,17.24,6.77,17.33,17.43
		C404.24,328.75,404.23,367.73,403.93,406.71z M471.61,405.79c-0.3,11.82-6.66,17.94-18.46,18.51c-4.9,0.23-9.84,0.29-14.73-0.06
		c-10.61-0.76-17.09-6.82-17.23-17.5c-0.36-27.72-0.36-55.45,0.01-83.17c0.14-10.64,6.69-16.65,17.33-17.4
		c4.54-0.32,9.13-0.23,13.68-0.07c12.98,0.44,19.21,6.59,19.45,19.69c0.24,12.98,0.05,25.97,0.04,38.95
		C471.69,378.42,471.96,392.11,471.61,405.79z M539.18,406.67c-0.52,10.7-6.62,16.81-17.18,17.56c-5.23,0.37-10.53,0.35-15.77,0.02
		c-10.67-0.68-17.13-6.67-17.43-17.28c-0.46-16.47-0.46-32.96-0.02-49.43c0.3-11.11,6.84-17.02,18.2-17.62
		c4.55-0.24,9.12-0.23,13.67-0.01c11.83,0.56,18.09,6.64,18.57,18.39c0.32,7.7,0.06,15.42,0.05,23.14
		C539.26,389.84,539.59,398.28,539.18,406.67z M555.76,275.43c-2.16,10.31-11.39,14.97-23.94,12.44
		c-40.89-8.27-78-25.37-112.75-48.02c-10.21-6.65-20.24-13.58-30.45-20.45c-6.34,7.55-11.97,14.26-19.09,22.75
		c-11.25-30.11-21.85-58.45-32.96-88.2c31.5,5.29,61.34,10.31,92.84,15.6c-7.1,8.73-12.98,15.96-19.11,23.49
		c39.95,28.37,81.12,52.04,128.94,62.09C551.63,257.73,557.77,265.85,555.76,275.43z"/>
</g>
</svg>
