<?xml version="1.0" encoding="utf-8"?>
<!-- Generator: Adobe Illustrator 26.2.1, SVG Export Plug-In . SVG Version: 6.00 Build 0)  -->
<svg version="1.1" id="Ebene_1" xmlns="http://www.w3.org/2000/svg" xmlns:xlink="http://www.w3.org/1999/xlink" x="0px" y="0px"
	 viewBox="0 0 841.89 595.28" style="enable-background:new 0 0 841.89 595.28;" xml:space="preserve">
<style type="text/css">
	.st0{fill:#EE7E05;}
</style>
<g>
	<path class="st0" d="M420.94,85.04c-117.41,0-212.6,95.18-212.6,212.6s95.18,212.6,212.6,212.6c117.41,0,212.6-95.18,212.6-212.6
		S538.36,85.04,420.94,85.04z M386.17,175.51c-6.12,6.48-11.78,14.74-16.79,24.63c-3.11,6.14-5.89,12.75-8.32,19.75
		c-1.09-0.6-2.18-1.22-3.25-1.85c-0.81-0.48-1.63-0.97-2.43-1.47c-6.58-4.09-12.8-8.78-18.56-13.97
		C351.17,189.89,367.97,180.68,386.17,175.51z M330.11,208.98c6.47,5.9,13.43,11.17,20.8,15.71c0.9,0.55,1.73,1.06,2.56,1.54
		c1.56,0.91,3.13,1.8,4.72,2.65c-5.69,19.4-8.89,40.89-9.27,64.1h-54.89C295.16,261.18,307.88,231.71,330.11,208.98z M294.05,302.44
		h54.87c0.42,23.21,3.62,44.52,9.26,63.77c-1.58,0.85-3.15,1.82-4.71,2.73c-0.82,0.48-1.68,1.04-2.56,1.59
		c-7.42,4.57-14.43,9.73-20.93,15.67C308.66,364.37,295.34,335.11,294.05,302.44z M336.69,392.79c5.8-5.24,12.06-9.98,18.69-14.09
		c0.81-0.5,1.62-0.99,2.43-1.47c1.08-0.64,2.16-1.25,3.25-1.85c2.44,7,5.21,13.61,8.32,19.75c5.02,9.91,10.69,18.18,16.82,24.67
		C367.48,414.52,350.67,405.16,336.69,392.79z M415.91,424.49c-0.86-0.01-0.67-0.02-0.99-0.04c-3.26-0.15-6.53-0.44-9.77-0.84
		c-10.92-5.61-21-17.04-29.28-33.52c-2.87-5.71-5.43-11.87-7.69-18.38c8.94-4.25,18.32-7.45,28.01-9.55
		c0.88-0.19,1.79-0.38,2.75-0.56c5.58-1.08,10.96-1.79,16.98-2.13V424.49z M415.91,350.27c-6.88,0.35-12.4,1.09-18.44,2.24
		c-0.87,0.16-1.83,0.35-2.9,0.58c-10.11,2.15-19.9,5.22-29.22,9.54c-5.27-18.15-8.26-38.71-8.68-60.2h59.24V350.27z M415.91,292.98
		h-59.24c0.38-21.49,3.37-42.23,8.68-60.53c9.33,4.32,19.11,7.58,29.21,9.72c1.07,0.23,2.03,0.42,2.89,0.58
		c6.05,1.16,11.58,1.9,18.46,2.24V292.98z M415.91,235.8c-6.02-0.34-11.4-1.05-16.98-2.13c-0.96-0.19-1.86-0.37-2.75-0.57
		c-9.68-2.1-19.06-5.3-28-9.55c2.26-6.51,4.82-12.67,7.69-18.38c8.29-16.48,18.36-27.91,29.28-33.51c3.24-0.4,6.52-0.69,9.79-0.84
		c0.32-0.02,0.11-0.02,0.97-0.04V235.8z M507.75,205.15c-6.25,5.31-12.99,10.04-20.11,14.07c-0.89,0.51-1.7,0.95-2.47,1.37
		c-1.18,0.64-2.38,1.25-3.58,1.85c-2.64-7.94-5.7-15.42-9.19-22.3c-5.02-9.91-10.68-18.17-16.81-24.66
		C475.04,180.99,492.81,191.09,507.75,205.15z M425.37,170.78c0,0.02,0.95,0.02,1.33,0.04c3.26,0.15,6.61,0.44,9.86,0.84
		c10.92,5.61,21.08,17.04,29.37,33.51c3.2,6.36,6.02,13.26,8.45,20.6c-9.15,3.89-18.7,6.7-28.54,8.39c-0.86,0.15-1.93,0.3-2.92,0.44
		c-5.7,0.86-11.53,1.31-17.55,1.4V170.78z M425.37,245.19c6.02-0.09,12.66-0.56,18.76-1.46c1.13-0.17,2.14-0.31,2.98-0.46
		c10.3-1.74,20.35-4.61,29.92-8.58c4.91,17.74,7.73,37.67,8.09,58.3h-59.75V245.19z M425.37,302.44h59.75
		c-0.4,20.63-3.17,40.38-8.04,57.97c-9.58-3.97-19.58-6.76-29.86-8.49c-0.85-0.15-1.95-0.25-3.09-0.41
		c-6.1-0.9-12.74-1.33-18.76-1.42V302.44z M436.54,423.61c-3.24,0.4-6.59,0.69-9.86,0.84c-0.37,0.02-1.31,0.03-1.31,0.04v-65.24
		c6.02,0.09,11.85,0.54,17.56,1.4c0.97,0.14,1.95,0.29,2.84,0.44c9.83,1.69,19.42,4.5,28.57,8.39c-2.44,7.34-5.23,14.24-8.43,20.6
		C457.61,406.58,447.46,418.01,436.54,423.61z M455.59,419.79c6.13-6.49,11.8-14.75,16.82-24.66c3.48-6.88,6.55-14.35,9.19-22.3
		c1.2,0.6,2.4,1.21,3.58,1.85c0.77,0.41,1.57,0.86,2.47,1.37c7.18,4.07,13.96,8.84,20.25,14.2
		C493.38,403.88,475.57,414.16,455.59,419.79z M514.41,383.47c-7.01-6.04-14.57-11.19-22.56-15.68c-0.82-0.46-1.67-0.93-2.61-1.43
		c-1.62-0.87-3.26-1.89-4.91-2.69c5.19-18.61,8.13-38.88,8.54-61.23h54.87C546.5,334.25,534.21,361.95,514.41,383.47z
		 M492.88,292.98c-0.37-21.49-3.31-42.8-8.55-61.56c1.65-0.8,3.29-1.64,4.91-2.5c0.93-0.5,1.78-0.97,2.6-1.43
		c7.95-4.47,15.47-9.77,22.44-15.76c20.59,22.36,32.39,51.17,33.48,81.25H492.88z"/>
</g>
</svg>
