<?xml version="1.0" encoding="utf-8"?>
<!-- Generator: Adobe Illustrator 26.2.1, SVG Export Plug-In . SVG Version: 6.00 Build 0)  -->
<svg version="1.1" id="Ebene_1" xmlns="http://www.w3.org/2000/svg" xmlns:xlink="http://www.w3.org/1999/xlink" x="0px" y="0px"
	 viewBox="0 0 841.89 595.28" style="enable-background:new 0 0 841.89 595.28;" xml:space="preserve">
<style type="text/css">
	.st0{fill:#EE7E05;}
</style>
<g>
	<path class="st0" d="M420.94,85.04c-117.41,0-212.6,95.18-212.6,212.6s95.18,212.6,212.6,212.6s212.6-95.18,212.6-212.6
		S538.36,85.04,420.94,85.04z M478.8,309.75c0.02-0.2,0.16-0.4,0.19-0.6c0.07-0.59,0.22-1.18,0.32-1.76
		c0.15-0.85,0.37-1.68,0.58-2.5c0.42-1.58,0.97-3.11,1.62-4.59c0.05-0.11,0.1-0.21,0.15-0.32s0.1-0.21,0.15-0.31
		c0.34-0.73,0.71-1.45,1.11-2.16c0.12-0.21,0.24-0.42,0.36-0.63c1.48-2.48,3.28-4.75,5.36-6.73c0.2-0.19,0.4-0.37,0.6-0.56
		c0.35-0.31,0.7-0.62,1.06-0.92c0.24-0.2,0.48-0.39,0.72-0.58c0.54-0.42,1.08-0.82,1.65-1.2c0.08-0.06,0.16-0.11,0.24-0.16
		c1.42-0.95,2.91-1.78,4.48-2.49c0.05-0.02,0.09-0.04,0.13-0.06c1.47-0.66,3-1.21,4.58-1.64c0.33-0.09,0.67-0.18,1.01-0.26
		c1.58-0.38,3.21-0.63,4.88-0.76c0.53-0.04,1.07-0.07,1.61-0.08c0.27-0.01,0.54-0.01,0.81-0.01c0.27,0,0.54,0,0.81,0.01
		c0.54,0.01,1.08,0.04,1.61,0.08c1.67,0.13,3.3,0.39,4.88,0.76c0.34,0.08,0.67,0.17,1.01,0.26c1.58,0.43,3.11,0.98,4.58,1.64
		c0.05,0.02,0.09,0.04,0.13,0.06c1.57,0.71,3.06,1.55,4.48,2.49c0.08,0.05,0.16,0.11,0.24,0.16c0.56,0.38,1.11,0.78,1.65,1.2
		c0.24,0.19,0.48,0.38,0.72,0.58c0.36,0.3,0.71,0.61,1.06,0.92c0.2,0.18,0.4,0.37,0.59,0.55c2.08,1.98,3.89,4.25,5.37,6.74
		c0.12,0.21,0.24,0.42,0.36,0.63c0.4,0.7,0.77,1.42,1.11,2.16c0.1,0.21,0.19,0.42,0.29,0.63c0.65,1.47,1.18,3,1.6,4.59
		c0.22,0.82,0.4,1.66,0.56,2.5c0.14,0.78,0.25,1.56,0.33,2.36c0.03,0.25,0.05,0.5,0.07,0.75c0.02,0.28,0.04,0.57,0.06,0.86
		c0.03,0.54,0.04,1.08,0.04,1.62s-0.01,1.09-0.04,1.62c-0.03,0.54-0.07,1.07-0.12,1.6c-0.08,0.8-0.19,1.58-0.33,2.36
		c-0.15,0.85-0.34,1.68-0.56,2.5c-0.42,1.58-0.96,3.11-1.6,4.59c-0.09,0.21-0.19,0.42-0.29,0.63c-0.34,0.73-0.71,1.45-1.11,2.16
		c-0.12,0.21-0.24,0.42-0.36,0.63c-1.48,2.48-3.28,4.75-5.36,6.73c-0.2,0.19-0.4,0.37-0.6,0.56c-0.35,0.31-0.7,0.62-1.06,0.92
		c-0.24,0.2-0.48,0.39-0.72,0.58c-0.54,0.42-1.08,0.82-1.65,1.2c-0.08,0.06-0.16,0.11-0.24,0.16c-0.75,0.5-1.51,0.97-2.3,1.4
		c-0.71,0.39-1.44,0.76-2.18,1.09c-0.04,0.02-0.09,0.04-0.13,0.06c-1.47,0.66-3,1.21-4.58,1.64c-0.33,0.09-0.67,0.18-1.01,0.26
		c-1.58,0.38-3.21,0.63-4.88,0.76c-0.53,0.04-1.07,0.07-1.61,0.08c-0.27,0.01-0.54,0.01-0.81,0.01c-0.27,0-0.54,0-0.81-0.01
		c-0.54-0.01-1.08-0.04-1.61-0.08c-1.67-0.13-3.3-0.39-4.88-0.76c-0.34-0.08-0.67-0.17-1.01-0.26c-1.58-0.43-3.11-0.98-4.58-1.64
		c-0.05-0.02-0.09-0.04-0.13-0.06c-0.66-0.3-1.32-0.63-1.95-0.97c-0.87-0.47-1.71-0.98-2.52-1.52c-0.08-0.05-0.16-0.11-0.24-0.16
		c-0.56-0.38-1.11-0.78-1.65-1.2c-0.24-0.19-0.48-0.38-0.72-0.58c-0.36-0.3-0.72-0.61-1.06-0.92c-0.38-0.35-0.76-0.71-1.13-1.07
		c-1.86-1.86-3.48-3.95-4.83-6.22c-0.12-0.21-0.24-0.42-0.36-0.63c-0.4-0.7-0.77-1.42-1.11-2.16c-0.1-0.21-0.19-0.42-0.29-0.63
		c-0.65-1.47-1.19-3-1.6-4.59c-0.22-0.82-0.4-1.66-0.56-2.5c-0.14-0.78-0.25-1.56-0.33-2.36c-0.05-0.53-0.09-1.06-0.12-1.6
		c-0.03-0.54-0.04-1.08-0.04-1.62s-0.23-1.09-0.2-1.62c0.02-0.33-0.17-0.66-0.17-0.98v-0.01c0-0.07,0.03-0.14,0.08-0.2
		c-0.03-0.02-0.06-0.03-0.09-0.05c-0.03-0.02-0.06-0.03-0.09-0.05c0.06,0.03,0.12,0.06,0.18,0.09
		C478.67,310.01,478.78,309.88,478.8,309.75z M391.64,161.49c0.02-0.2,0-0.4,0.02-0.6c0.07-0.59,0.13-1.18,0.24-1.76
		c0.15-0.85,0.32-1.68,0.54-2.5c0.42-1.58,0.95-3.11,1.6-4.59c0.05-0.11,0.09-0.21,0.14-0.32c0.05-0.1,0.09-0.21,0.14-0.31
		c0.34-0.73,0.71-1.45,1.11-2.16c0.12-0.21,0.24-0.42,0.36-0.63c1.48-2.48,3.28-4.75,5.36-6.73c0.2-0.19,0.4-0.37,0.6-0.56
		c0.35-0.31,0.7-0.62,1.06-0.92c0.24-0.2,0.48-0.39,0.72-0.58c0.54-0.42,1.08-0.82,1.65-1.2c0.08-0.06,0.16-0.11,0.24-0.16
		c1.42-0.95,2.91-1.78,4.48-2.49c0.05-0.02,0.09-0.04,0.13-0.06c1.47-0.66,3-1.21,4.58-1.64c0.33-0.09,0.67-0.18,1.01-0.26
		c1.58-0.38,3.21-0.63,4.88-0.76c0.53-0.04,1.07-0.07,1.61-0.08c0.27-0.01,0.54-0.01,0.81-0.01c0.27,0,0.54,0,0.81,0.01
		c0.54,0.01,1.08,0.04,1.61,0.08c1.67,0.13,3.3,0.39,4.88,0.76c0.34,0.08,0.67,0.17,1.01,0.26c1.58,0.43,3.11,0.98,4.58,1.64
		c0.05,0.02,0.09,0.04,0.13,0.06c1.57,0.71,3.06,1.55,4.48,2.49c0.08,0.05,0.16,0.11,0.24,0.16c0.56,0.38,1.11,0.78,1.65,1.2
		c0.24,0.19,0.48,0.38,0.72,0.58c0.36,0.3,0.71,0.61,1.06,0.92c0.2,0.18,0.4,0.37,0.59,0.55c2.08,1.98,3.89,4.25,5.37,6.74
		c0.12,0.21,0.24,0.42,0.36,0.63c0.4,0.7,0.77,1.42,1.11,2.16c0.1,0.21,0.19,0.42,0.29,0.63c0.65,1.47,1.18,3,1.6,4.59
		c0.22,0.82,0.4,1.66,0.56,2.5c0.14,0.78,0.25,1.56,0.33,2.36c0.03,0.25,0.05,0.5,0.07,0.75c0.02,0.28,0.04,0.57,0.06,0.86
		c0.03,0.54,0.04,1.08,0.04,1.62c0,0.54-0.01,1.09-0.04,1.62c-0.03,0.54-0.07,1.07-0.12,1.6c-0.08,0.8-0.19,1.58-0.33,2.36
		c-0.15,0.85-0.34,1.68-0.56,2.5c-0.42,1.58-0.96,3.11-1.6,4.59c-0.09,0.21-0.19,0.42-0.29,0.63c-0.34,0.73-0.71,1.45-1.11,2.16
		c-0.12,0.21-0.24,0.42-0.36,0.63c-1.48,2.48-3.28,4.75-5.36,6.73c-0.2,0.19-0.4,0.37-0.6,0.56c-0.35,0.31-0.7,0.62-1.06,0.92
		c-0.24,0.2-0.48,0.39-0.72,0.58c-0.54,0.42-1.08,0.82-1.65,1.2c-0.08,0.06-0.16,0.11-0.24,0.16c-0.75,0.5-1.51,0.97-2.3,1.4
		c-0.71,0.39-1.44,0.76-2.18,1.09c-0.04,0.02-0.09,0.04-0.13,0.06c-1.47,0.66-3,1.21-4.58,1.64c-0.33,0.09-0.67,0.18-1.01,0.26
		c-1.58,0.38-3.21,0.63-4.88,0.76c-0.53,0.04-1.07,0.07-1.61,0.08c-0.27,0.01-0.54,0.01-0.81,0.01c-0.27,0-0.54,0-0.81-0.01
		c-0.54-0.01-1.08-0.04-1.61-0.08c-1.67-0.13-3.3-0.39-4.88-0.76c-0.34-0.08-0.67-0.17-1.01-0.26c-1.58-0.43-3.11-0.98-4.58-1.64
		c-0.05-0.02-0.09-0.04-0.13-0.06c-0.66-0.3-1.32-0.63-1.95-0.97c-0.87-0.47-1.71-0.98-2.52-1.52c-0.08-0.05-0.16-0.11-0.24-0.16
		c-0.56-0.38-1.11-0.78-1.65-1.2c-0.24-0.19-0.48-0.38-0.72-0.58c-0.36-0.3-0.72-0.61-1.06-0.92c-0.38-0.35-0.76-0.71-1.13-1.07
		c-1.86-1.86-3.48-3.95-4.83-6.22c-0.12-0.21-0.24-0.42-0.36-0.63c-0.4-0.7-0.77-1.42-1.11-2.16c-0.1-0.21-0.19-0.42-0.29-0.63
		c-0.65-1.47-1.19-3-1.6-4.59c-0.22-0.82-0.4-1.66-0.56-2.5c-0.14-0.78-0.25-1.56-0.33-2.36c-0.05-0.53-0.09-1.06-0.12-1.6
		c-0.03-0.54-0.04-1.08-0.04-1.62c0-0.54,0.11-1.09,0.14-1.62c0.02-0.33,0.16-0.66,0.16-0.99v-0.01
		C391.68,161.9,391.62,161.69,391.64,161.49z M391.38,162.03c0.04,0.02,0.07,0.04,0.1,0.06c0.01,0,0.01,0.01,0.02,0.01v0.01
		c0,0,0,0,0,0c-0.01,0-0.01-0.01-0.02-0.01c-0.23-0.08-0.34-0.17-0.48-0.25c-0.03-0.02-0.06-0.03-0.09-0.05
		C391.06,161.87,391.24,161.95,391.38,162.03z M370.18,224.88c0.37-7.78,3.48-14.83,8.36-20.13c0.14-0.16,0.28-0.31,0.43-0.46
		c2.43-2.54,5.27-4.64,8.4-6.2c0.19-0.09,0.38-0.19,0.57-0.28c0.86-0.41,1.75-0.77,2.65-1.09c0.2-0.07,0.4-0.14,0.61-0.21
		c0.81-0.27,1.64-0.5,2.47-0.69c1.02,0.98,2.09,1.91,3.2,2.78c2.83,2.22,5.93,4.07,9.21,5.52c0.62,0.27,1.24,0.53,1.86,0.77
		c2.42,0.94,4.89,1.64,7.41,2.1c2.47,0.46,4.99,0.68,7.54,0.68c2.92,0,5.78-0.27,8.59-0.87c0.35-0.07,0.7-0.21,1.05-0.21
		c0,0,0,0,0,0c0.52,0,1.04,0,1.56,0c0,0,0,0,0,0c1.36,0,2.71-1.07,4.04-1.6c0.53-0.21,1.05-0.67,1.57-0.91
		c2.57-1.14,4.98-2.66,7.26-4.37c0,0,0,0,0,0c0.25,0,0.5-0.23,0.75-0.41c1.5-1.11,2.93-2.25,4.29-3.56
		c12.93,3.01,22.52,14.86,23.19,29.09c0.03,0.52-0.13,1.07-0.13,1.6v32.66c0,0.67,0.03,0.8-0.61,0.8H371.4
		c-0.64,0-1.21-0.13-1.21-0.8v-32.66C370.19,225.92,370.16,225.4,370.18,224.88z M301.35,310.83c0.03,0.01,0.05,0.03,0.07,0.04
		c0-0.19,0.06-0.39,0.07-0.58c0.02-0.2,0.06-0.4,0.08-0.6c0.07-0.59,0.16-1.18,0.27-1.76c0.15-0.85,0.34-1.68,0.56-2.5
		c0.42-1.58,0.96-3.11,1.61-4.59c0.05-0.11,0.09-0.21,0.14-0.32c0.05-0.1,0.1-0.21,0.15-0.31c0.34-0.73,0.71-1.45,1.11-2.16
		c0.12-0.21,0.24-0.42,0.36-0.63c1.48-2.48,3.28-4.75,5.36-6.73c0.2-0.19,0.4-0.37,0.6-0.56c0.35-0.31,0.7-0.62,1.06-0.92
		c0.24-0.2,0.48-0.39,0.72-0.58c0.54-0.42,1.08-0.82,1.65-1.2c0.08-0.06,0.16-0.11,0.24-0.16c1.42-0.95,2.91-1.78,4.48-2.49
		c0.05-0.02,0.09-0.04,0.13-0.06c1.47-0.66,3-1.21,4.58-1.64c0.33-0.09,0.67-0.18,1.01-0.26c1.58-0.38,3.21-0.63,4.88-0.76
		c0.53-0.04,1.07-0.07,1.61-0.08c0.27-0.01,0.54-0.01,0.81-0.01c0.27,0,0.54,0,0.81,0.01c0.54,0.01,1.08,0.04,1.61,0.08
		c1.67,0.13,3.3,0.39,4.88,0.76c0.34,0.08,0.67,0.17,1.01,0.26c1.58,0.43,3.11,0.98,4.58,1.64c0.05,0.02,0.09,0.04,0.13,0.06
		c1.57,0.71,3.06,1.55,4.48,2.49c0.08,0.05,0.16,0.11,0.24,0.16c0.56,0.38,1.11,0.78,1.65,1.2c0.24,0.19,0.48,0.38,0.72,0.58
		c0.36,0.3,0.71,0.61,1.06,0.92c0.2,0.18,0.4,0.37,0.59,0.55c2.08,1.98,3.89,4.25,5.37,6.74c0.12,0.21,0.24,0.42,0.36,0.63
		c0.4,0.7,0.77,1.42,1.11,2.16c0.1,0.21,0.19,0.42,0.29,0.63c0.65,1.47,1.18,3,1.6,4.59c0.22,0.82,0.4,1.66,0.56,2.5
		c0.14,0.78,0.25,1.56,0.33,2.36c0.03,0.25,0.05,0.5,0.07,0.75c0.02,0.28,0.04,0.57,0.06,0.86c0.03,0.54,0.04,1.08,0.04,1.62
		c0,0.54-0.01,1.09-0.04,1.62c-0.03,0.54-0.07,1.07-0.12,1.6c-0.08,0.8-0.19,1.58-0.33,2.36c-0.15,0.85-0.34,1.68-0.56,2.5
		c-0.42,1.58-0.96,3.11-1.6,4.59c-0.09,0.21-0.19,0.42-0.29,0.63c-0.34,0.73-0.71,1.45-1.11,2.16c-0.12,0.21-0.24,0.42-0.36,0.63
		c-1.48,2.48-3.28,4.75-5.36,6.73c-0.2,0.19-0.4,0.37-0.6,0.56c-0.35,0.31-0.7,0.62-1.06,0.92c-0.24,0.2-0.48,0.39-0.72,0.58
		c-0.54,0.42-1.08,0.82-1.65,1.2c-0.08,0.06-0.16,0.11-0.24,0.16c-0.75,0.5-1.51,0.97-2.3,1.4c-0.71,0.39-1.44,0.76-2.18,1.09
		c-0.04,0.02-0.09,0.04-0.13,0.06c-1.47,0.66-3,1.21-4.58,1.64c-0.33,0.09-0.67,0.18-1.01,0.26c-1.58,0.38-3.21,0.63-4.88,0.76
		c-0.53,0.04-1.07,0.07-1.61,0.08c-0.27,0.01-0.54,0.01-0.81,0.01c-0.27,0-0.54,0-0.81-0.01c-0.54-0.01-1.08-0.04-1.61-0.08
		c-1.67-0.13-3.3-0.39-4.88-0.76c-0.34-0.08-0.67-0.17-1.01-0.26c-1.58-0.43-3.11-0.98-4.58-1.64c-0.05-0.02-0.09-0.04-0.13-0.06
		c-0.66-0.3-1.32-0.63-1.95-0.97c-0.87-0.47-1.71-0.98-2.52-1.52c-0.08-0.05-0.16-0.11-0.24-0.16c-0.56-0.38-1.11-0.78-1.65-1.2
		c-0.24-0.19-0.48-0.38-0.72-0.58c-0.36-0.3-0.72-0.61-1.06-0.92c-0.38-0.35-0.76-0.71-1.13-1.07c-1.86-1.86-3.48-3.95-4.83-6.22
		c-0.12-0.21-0.24-0.42-0.36-0.63c-0.4-0.7-0.77-1.42-1.11-2.16c-0.1-0.21-0.19-0.42-0.29-0.63c-0.65-1.47-1.19-3-1.6-4.59
		c-0.22-0.82-0.4-1.66-0.56-2.5c-0.14-0.78-0.25-1.56-0.33-2.36c-0.05-0.53-0.09-1.06-0.12-1.6c-0.03-0.54-0.04-1.08-0.04-1.62
		c0-0.54-0.01-1.09,0.02-1.62c0.02-0.33,0.04-0.66,0.04-0.99v-0.01c0-0.01,0-0.02,0-0.02c-0.2-0.08-0.32-0.16-0.45-0.23
		c-0.03-0.02-0.06-0.03-0.09-0.05C301.03,310.67,301.21,310.75,301.35,310.83z M385.66,407.91c0,0.67-0.6,0.72-1.24,0.72H281.37
		c-0.64,0-1.44-0.05-1.44-0.72v-32.66c0-0.53,0.09-1.05,0.11-1.57c0.37-7.78,3.54-14.83,8.41-20.13c0.14-0.16,0.31-0.31,0.46-0.46
		c2.43-2.54,5.29-4.64,8.42-6.2c0.19-0.09,0.38-0.19,0.58-0.28c0.86-0.41,1.75-0.77,2.66-1.09c0.2-0.07,0.41-0.14,0.61-0.21
		c0.81-0.27,1.64-0.5,2.47-0.69c1.02,0.98,2.09,1.91,3.2,2.78c2.83,2.22,5.93,4.07,9.21,5.52c0.62,0.27,1.24,0.53,1.86,0.77
		c2.42,0.94,4.89,1.64,7.41,2.1c2.47,0.45,4.99,0.68,7.54,0.68c2.92,0,5.78-0.31,8.59-0.91c0.35-0.07,0.7-0.25,1.05-0.25
		c0,0,0,0,0,0c0.52,0,1.04,0,1.56,0c0,0,0,0,0,0c1.36,0,2.71-1.03,4.04-1.56c0.53-0.21,1.05-0.69,1.57-0.93
		c2.57-1.14,4.98-2.68,7.26-4.4c0,0,0,0,0,0c0.25,0,0.5-0.19,0.75-0.37c1.5-1.11,2.93-2.23,4.29-3.54
		c12.93,3.01,22.83,14.87,23.51,29.1c0.03,0.52,0.18,1.08,0.18,1.61V407.91z M450.15,346.52l-29.98-23.88l-29.98,23.88
		c-2.67,2.13-6.59,1.68-8.72-0.99c-2.13-2.67-1.68-6.59,0.99-8.72l32.63-25.99v-36.97c0-3.38,2.77-6.15,6.15-6.15h0.1
		c3.38,0,6.15,2.77,6.15,6.15v38.77l30.37,24.19c2.67,2.13,3.11,6.05,0.99,8.72C456.74,348.2,452.82,348.65,450.15,346.52z
		 M562.75,374.71v32.66c0,0.67-0.16,1.26-0.8,1.26H458.89c-0.64,0-1.02-0.59-1.02-1.26v-32.66c0-0.53-0.13-1.05-0.1-1.57
		c0.37-7.78,3.43-14.83,8.31-20.13c0.14-0.16,0.26-0.31,0.4-0.46c2.43-2.54,5.26-4.64,8.39-6.2c0.19-0.09,0.37-0.19,0.56-0.28
		c0.86-0.41,1.75-0.77,2.65-1.09c0.2-0.07,0.4-0.14,0.6-0.21c0.81-0.27,1.63-0.5,2.47-0.69c1.02,0.98,2.09,1.91,3.2,2.78
		c2.83,2.22,5.93,4.07,9.21,5.52c0.62,0.27,1.24,0.53,1.86,0.77c2.42,0.94,4.89,1.64,7.41,2.1c2.47,0.45,4.99,0.68,7.54,0.68
		c2.92,0,5.78-0.47,8.59-1.07c0.35-0.07,0.7-0.41,1.05-0.41c0,0,0,0,0,0c0.52,0,1.04,0,1.56,0c0,0,0,0,0,0
		c1.36,0,2.71-0.87,4.04-1.4c0.53-0.21,1.05-0.35,1.57-0.58c2.57-1.14,4.98-2.33,7.26-4.05c0,0,0,0,0,0c0.25,0,0.5-0.46,0.75-0.64
		c1.5-1.11,2.93-2.37,4.29-3.68c12.93,3.01,22.62,14.8,23.29,29.03C562.81,373.69,562.75,374.18,562.75,374.71z"/>
	<path class="st0" d="M391.48,162.09c-0.03-0.02-0.07-0.04-0.1-0.06c-0.11-0.06-0.25-0.12-0.38-0.18
		C391.14,161.92,391.26,162.01,391.48,162.09z"/>
	<path class="st0" d="M391.38,162.03c-0.14-0.08-0.32-0.15-0.47-0.23c0.03,0.01,0.06,0.03,0.09,0.05
		C391.12,161.9,391.26,161.97,391.38,162.03z"/>
	<path class="st0" d="M391.5,162.11L391.5,162.11c-0.01-0.01-0.02-0.01-0.02-0.02C391.49,162.09,391.49,162.1,391.5,162.11
		C391.5,162.1,391.5,162.11,391.5,162.11z"/>
	<path class="st0" d="M301.42,310.87C301.42,310.87,301.42,310.87,301.42,310.87c-0.02-0.02-0.04-0.03-0.07-0.05
		c-0.11-0.06-0.25-0.12-0.38-0.18C301.1,310.72,301.22,310.8,301.42,310.87z"/>
	<path class="st0" d="M301.45,310.89c-0.01-0.01-0.02-0.01-0.03-0.02c0,0,0,0,0,0C301.43,310.88,301.44,310.88,301.45,310.89z"/>
	<path class="st0" d="M301.35,310.83c-0.14-0.08-0.32-0.15-0.47-0.23c0.03,0.01,0.06,0.03,0.09,0.05
		C301.09,310.7,301.23,310.76,301.35,310.83z"/>
	<path class="st0" d="M301.47,310.9L301.47,310.9c-0.01-0.01-0.02-0.01-0.02-0.02C301.46,310.89,301.46,310.9,301.47,310.9
		C301.47,310.9,301.47,310.9,301.47,310.9z"/>
	<path class="st0" d="M478.49,310.11c0.03,0.02,0.06,0.03,0.09,0.05c0,0,0,0,0-0.01C478.55,310.14,478.52,310.12,478.49,310.11z"/>
	<path class="st0" d="M478.87,310.29c-0.09-0.05-0.19-0.09-0.29-0.14c0,0,0,0,0,0.01c0.11,0.06,0.22,0.13,0.4,0.19
		C478.94,310.33,478.91,310.31,478.87,310.29z"/>
	<path class="st0" d="M478.49,310.11c0.03,0.01,0.06,0.03,0.09,0.04c0,0,0,0,0,0c-0.06-0.03-0.12-0.06-0.18-0.09
		C478.43,310.07,478.46,310.09,478.49,310.11z"/>
	<path class="st0" d="M478.87,310.29c-0.09-0.05-0.19-0.1-0.29-0.14c0,0,0,0,0,0C478.68,310.2,478.78,310.24,478.87,310.29z"/>
	<path class="st0" d="M478.99,310.37L478.99,310.37c-0.01-0.01-0.02-0.01-0.02-0.02C478.98,310.35,478.99,310.36,478.99,310.37
		C478.99,310.36,478.99,310.37,478.99,310.37z"/>
</g>
</svg>
